# xmcd
#
# Track frame offsets: 
#        182
#        23237
#        44852
#        70187
#        93987
#        113795
#        139320
#        163047
#        183465
#        205060
#        230245
#        258100
#        274575
#        299390
#
# Disc length: 4355 seconds
#
# Revision: 11
# Processed by: cddbd v1.5.2PL0 Copyright (c) Steve Scherf et al.
# Submitted via: ExactAudioCopy v0.95a4
#
DISCID=d411010e
DTITLE=Zero 7 - Simple Things
DYEAR=2001
DGENRE=Quango Records
TTITLE0=I Have Seen
TTITLE1=Polaris
TTITLE2=Destiny
TTITLE3=Give It Away
TTITLE4=Simple Things
TTITLE5=Red Dust
TTITLE6=Distractions
TTITLE7=In The Waiting Line
TTITLE8=Out Of Town
TTITLE9=This World
TTITLE10=Likufanele
TTITLE11=End Theme
TTITLE12=Salt Water Sound
TTITLE13=Spinning
EXTD=2001 Mushroom Records YEAR: 2001
EXTT0=
EXTT1=
EXTT2=
EXTT3=
EXTT4=
EXTT5=
EXTT6=
EXTT7=
EXTT8=
EXTT9=
EXTT10=
EXTT11=
EXTT12=
EXTT13=
PLAYORDER=
